<svg width="21" height="16" viewBox="0 0 21 16" fill="none" xmlns="http://www.w3.org/2000/svg">
<path d="M19.6522 2.49275C19.2464 2.06763 18.686 1.81643 18.0483 1.81643H14.8406V1.77778C14.8406 1.29469 14.6473 0.830918 14.3188 0.521739C13.9903 0.193237 13.5459 0 13.0628 0H7.2657C6.76328 0 6.31884 0.193237 5.99034 0.521739C5.66184 0.850241 5.4686 1.29469 5.4686 1.77778V1.81643H2.28019C1.64251 1.81643 1.08213 2.06763 0.676328 2.49275C0.270531 2.89855 0 3.47826 0 4.09662V13.7198C0 14.3575 0.251208 14.9179 0.676328 15.3237C1.08213 15.7295 1.66184 16 2.28019 16H18.0483C18.686 16 19.2464 15.7488 19.6522 15.3237C20.058 14.9179 20.3285 14.3382 20.3285 13.7198V4.09662C20.3285 3.45894 20.0773 2.89855 19.6522 2.49275ZM19.3237 13.7198H19.3043C19.3043 14.0676 19.1691 14.3768 18.9372 14.6087C18.7053 14.8406 18.3961 14.9758 18.0483 14.9758H2.28019C1.93237 14.9758 1.62319 14.8406 1.3913 14.6087C1.15942 14.3768 1.02415 14.0676 1.02415 13.7198V4.09662C1.02415 3.74879 1.15942 3.43961 1.3913 3.20773C1.62319 2.97585 1.93237 2.84058 2.28019 2.84058H6.00966C6.29952 2.84058 6.5314 2.6087 6.5314 2.31884V1.75845C6.5314 1.54589 6.6087 1.35266 6.74396 1.21739C6.87923 1.08213 7.07246 1.00483 7.28502 1.00483H13.0628C13.2754 1.00483 13.4686 1.08213 13.6039 1.21739C13.7391 1.35266 13.8164 1.54589 13.8164 1.75845V2.31884C13.8164 2.6087 14.0483 2.84058 14.3382 2.84058H18.0676C18.4155 2.84058 18.7246 2.97585 18.9565 3.20773C19.1884 3.43961 19.3237 3.74879 19.3237 4.09662V13.7198Z" fill="#1A91FF"/>
<path d="M10.1643 4.15454C8.85026 4.15454 7.65219 4.6956 6.80195 5.54585C5.93238 6.41541 5.41064 7.59416 5.41064 8.90817C5.41064 10.2222 5.95171 11.4202 6.80195 12.2705C7.67151 13.14 8.85026 13.6618 10.1643 13.6618C11.4783 13.6618 12.6763 13.1207 13.5266 12.2705C14.3962 11.4009 14.9179 10.2222 14.9179 8.90817C14.9179 7.59416 14.3768 6.39609 13.5266 5.54585C12.6763 4.6956 11.4783 4.15454 10.1643 4.15454ZM12.7923 11.5555C12.116 12.2125 11.1884 12.6376 10.1643 12.6376C9.14011 12.6376 8.21258 12.2125 7.53625 11.5555C6.85992 10.8792 6.45412 9.95164 6.45412 8.92749C6.45412 7.90333 6.87924 6.9758 7.53625 6.29947C8.21258 5.62314 9.14011 5.21734 10.1643 5.21734C11.1884 5.21734 12.116 5.64246 12.7923 6.29947C13.4686 6.9758 13.8744 7.90333 13.8744 8.92749C13.8937 9.95164 13.4686 10.8792 12.7923 11.5555Z" fill="#1A91FF"/>
<path d="M17.0435 6.0291C17.5665 6.0291 17.9904 5.60517 17.9904 5.08224C17.9904 4.5593 17.5665 4.13538 17.0435 4.13538C16.5206 4.13538 16.0967 4.5593 16.0967 5.08224C16.0967 5.60517 16.5206 6.0291 17.0435 6.0291Z" fill="#1A91FF"/>
</svg>
