<svg width="14" height="15" viewBox="0 0 14 15" fill="none" xmlns="http://www.w3.org/2000/svg">
<path d="M13.0838 8.31534C13.035 8.19851 12.9213 8.12228 12.7951 8.12228H9.37189V0.312405C9.37189 0.139963 9.23193 0 9.05949 0H4.06115C3.88871 0 3.74874 0.139963 3.74874 0.312405V8.12231H0.312403C0.186204 8.12231 0.0724828 8.19854 0.023749 8.31475C-0.0243696 8.43158 0.0018715 8.56592 0.0912264 8.65527L6.32352 14.9082C6.38224 14.9669 6.46161 15 6.5447 15C6.62778 15 6.70715 14.9669 6.76587 14.9088L13.0163 8.65589C13.1056 8.5665 13.1325 8.43219 13.0838 8.31534Z" fill="#C4C4C4"/>
</svg>
