<svg width="32" height="28" viewBox="0 0 32 28" fill="none" xmlns="http://www.w3.org/2000/svg">
<path d="M14.6736 10.4709C13.1525 10.4709 11.9194 11.7215 11.9194 13.2642C11.9194 14.8068 13.1525 16.0574 14.6736 16.0574C16.1946 16.0574 17.4277 14.8068 17.4277 13.2642C17.4277 11.7215 16.1947 10.4709 14.6736 10.4709ZM14.6736 14.7272C13.8768 14.7272 13.2309 14.0722 13.2309 13.2641C13.2309 12.456 13.8768 11.801 14.6736 11.801C15.4704 11.801 16.1162 12.456 16.1162 13.2641C16.1162 14.0722 15.4704 14.7272 14.6736 14.7272Z" fill="#979494" stroke="#979494" stroke-width="0.5"/>
<path d="M28.3967 3.2603L8.50568 1.02691C7.7337 0.918381 6.95154 1.14123 6.35632 1.63933C5.76118 2.09565 5.37968 2.77206 5.29984 3.51253L4.93557 6.46646H3.80615C2.2032 6.46646 1.00098 7.87134 1.00098 9.45639V24.1899C0.960611 25.7014 2.16701 26.9591 3.69563 26.9991C3.73245 27 3.76934 27.0002 3.80615 26.9998H23.8064C25.4094 26.9998 26.8666 25.775 26.8666 24.1899V23.6136C27.3635 23.5186 27.835 23.3223 28.2509 23.0372C28.8412 22.5458 29.2191 21.8499 29.3074 21.092L30.9832 6.46646C31.1541 4.87776 30.0011 3.44861 28.3967 3.2603ZM25.4094 24.1899C25.4094 24.9824 24.6079 25.5588 23.8064 25.5588H3.80615C3.08215 25.5798 2.47801 25.0165 2.45674 24.3006C2.45562 24.2637 2.45611 24.2268 2.4582 24.1899V21.5242L8.10494 17.4175C8.78327 16.9026 9.73872 16.9483 10.3636 17.5256L14.3346 20.9838C14.9376 21.4845 15.6967 21.7644 16.484 21.7764C17.0996 21.7838 17.705 21.6217 18.2327 21.308L25.4094 17.2014V24.1899H25.4094ZM25.4094 15.5083L17.4675 20.0833C16.7856 20.4828 15.9224 20.4104 15.3181 19.9032L11.3108 16.4089C10.1623 15.433 8.48357 15.3731 7.26699 16.2648L2.4582 19.723V9.45639C2.4582 8.66386 3.00468 7.9074 3.80615 7.9074H23.8064C24.6627 7.9425 25.3542 8.61077 25.4094 9.45639V15.5083ZM29.5274 6.27195C29.5269 6.27671 29.5265 6.28153 29.5259 6.28629L27.8137 20.9118C27.8166 21.291 27.6418 21.6502 27.3401 21.8844C27.1944 22.0285 26.8665 22.1006 26.8665 22.1726V9.45639C26.809 7.81528 25.4665 6.50363 23.8063 6.46646H6.39272L6.72059 3.65664C6.79172 3.29278 6.9841 2.96306 7.26706 2.72C7.58657 2.50157 7.97287 2.39973 8.36001 2.43179L28.2146 4.70124C29.0157 4.77647 29.6035 5.4797 29.5274 6.27195Z" fill="#979494" stroke="#979494" stroke-width="0.5"/>
</svg>
