<svg width="15" height="13" viewBox="0 0 15 13" fill="none" xmlns="http://www.w3.org/2000/svg">
<path d="M7.5 12.5658C7.31493 12.5658 7.1365 12.4988 6.99744 12.377C6.47227 11.9178 5.96595 11.4862 5.51923 11.1056L5.51695 11.1036C4.20725 9.9875 3.07628 9.02365 2.28937 8.07418C1.40972 7.01273 1 6.00633 1 4.90689C1 3.8387 1.36628 2.85322 2.0313 2.13187C2.70425 1.40199 3.62763 1 4.63165 1C5.38206 1 6.0693 1.23724 6.67421 1.70509C6.97949 1.94124 7.25621 2.23026 7.5 2.56738C7.74389 2.23026 8.02051 1.94124 8.32589 1.70509C8.9308 1.23724 9.61803 1 10.3684 1C11.3724 1 12.2959 1.40199 12.9688 2.13187C13.6338 2.85322 14 3.8387 14 4.90689C14 6.00633 13.5904 7.01273 12.7107 8.07408C11.9238 9.02365 10.7929 9.98741 9.48344 11.1034C9.03593 11.4847 8.52882 11.9169 8.00246 12.3772C7.8635 12.4988 7.68497 12.5658 7.5 12.5658ZM4.63165 1.76152C3.84286 1.76152 3.11823 2.07633 2.59108 2.64801C2.05609 3.22833 1.76142 4.03052 1.76142 4.90689C1.76142 5.83157 2.10509 6.65855 2.87563 7.58828C3.62039 8.48698 4.72816 9.43099 6.01078 10.5241L6.01316 10.5261C6.46156 10.9082 6.96987 11.3414 7.49891 11.804C8.03112 11.3406 8.54022 10.9066 8.98952 10.5239C10.272 9.43079 11.3797 8.48698 12.1245 7.58828C12.8949 6.65855 13.2386 5.83157 13.2386 4.90689C13.2386 4.03052 12.9439 3.22833 12.4089 2.64801C11.8819 2.07633 11.1571 1.76152 10.3684 1.76152C9.79061 1.76152 9.26009 1.94521 8.79165 2.30742C8.37419 2.63036 8.08339 3.03859 7.9129 3.32424C7.82522 3.47113 7.67089 3.5588 7.5 3.5588C7.32911 3.5588 7.17478 3.47113 7.0871 3.32424C6.91671 3.03859 6.62591 2.63036 6.20835 2.30742C5.73991 1.94521 5.20939 1.76152 4.63165 1.76152Z" fill="#C4C4C4" stroke="#1A91FF" stroke-width="0.1"/>
</svg>
