<svg width="15" height="15" viewBox="0 0 15 15" fill="none" xmlns="http://www.w3.org/2000/svg">
<path d="M7.27024 10.0553C6.84137 10.0553 6.49414 10.4127 6.49414 10.8416C6.49414 11.2603 6.83114 11.6279 7.27024 11.6279C7.70934 11.6279 8.05657 11.2603 8.05657 10.8416C8.05657 10.4127 7.69918 10.0553 7.27024 10.0553Z" fill="#979494"/>
<path d="M7.40287 4.10162C6.02425 4.10162 5.39111 4.91857 5.39111 5.47002C5.39111 5.86831 5.72809 6.05212 6.00383 6.05212C6.55525 6.05212 6.33061 5.26579 7.37223 5.26579C7.88284 5.26579 8.29133 5.49047 8.29133 5.96022C8.29133 6.5117 7.71945 6.82825 7.38245 7.11419C7.08632 7.36948 6.69825 7.78819 6.69825 8.66643C6.69825 9.19743 6.84119 9.35063 7.2599 9.35063C7.76029 9.35063 7.86239 9.12598 7.86239 8.93194C7.86239 8.40091 7.87265 8.09455 8.4343 7.65545C8.71001 7.441 9.57805 6.74657 9.57805 5.78663C9.57805 4.82669 8.71001 4.10162 7.40287 4.10162Z" fill="#979494"/>
<path d="M7.5 0C3.35496 0 0 3.3544 0 7.5V14.4141C0 14.7377 0.262324 15 0.585938 15H7.5C11.645 15 15 11.6456 15 7.5C15 3.35496 11.6456 0 7.5 0ZM7.5 13.8281H1.17188V7.5C1.17188 4.00263 4.00216 1.17188 7.5 1.17188C10.9974 1.17188 13.8281 4.00216 13.8281 7.5C13.8281 10.9974 10.9978 13.8281 7.5 13.8281Z" fill="#979494"/>
</svg>
