<svg width="24" height="15" viewBox="0 0 24 15" fill="none" xmlns="http://www.w3.org/2000/svg">
<path d="M23.5285 0.0543528C23.2472 -0.0584345 22.9191 0.0118829 22.7067 0.233802C21.8951 1.08636 20.3556 1.50082 18.0001 1.50082C15.9933 1.50082 14.5504 2.68736 13.4972 3.55369C12.931 4.01951 12.3458 4.50063 12.0001 4.50063C11.6544 4.50063 11.0692 4.01951 10.503 3.55369C9.44981 2.68732 8.00691 1.50082 6.00007 1.50082C3.64458 1.50082 2.10505 1.08636 1.29351 0.233802C1.08039 0.0103935 0.754443 -0.060646 0.47173 0.0543528C0.18676 0.168629 0 0.444031 0 0.75089C0 5.52456 0.705338 11.1675 6.2029 12.4507C8.88944 13.0776 9.88701 13.8451 10.5476 14.3534C10.9798 14.686 11.3877 15.0001 12 15.0001C12.6123 15.0001 13.0203 14.6859 13.4524 14.3527C14.113 13.8451 15.1106 13.0769 17.7964 12.4499C23.2947 11.1668 24 5.52379 24 0.750845C24.0001 0.443986 23.8133 0.168629 23.5285 0.0543528ZM17.4552 10.9896C14.453 11.6898 13.254 12.6133 12.5377 13.1648C11.9649 13.6057 12.0352 13.6057 11.4625 13.1648C10.7462 12.6132 9.54716 11.6905 6.54424 10.9903C3.29078 10.2308 1.75342 7.57748 1.52929 2.20981C2.63157 2.7408 4.11107 3.00072 6.00002 3.00072C7.46928 3.00072 8.57522 3.91038 9.55081 4.7123C10.3558 5.37517 11.1167 6.00062 12 6.00062C12.8833 6.00062 13.6443 5.37512 14.4493 4.7123C15.4249 3.91038 16.5309 3.00072 18.0001 3.00072C19.889 3.00072 21.3685 2.7408 22.4708 2.20981C22.246 7.57748 20.7093 10.2301 17.4552 10.9896Z" fill="#979494"/>
<path d="M4.5 6.11428C4.5 6.11428 4.5 10.5001 10.5 10.5001C10.5 9.40356 10.5 8.30724 9.49997 7.21069C7.91891 5.477 4.5 6.11428 4.5 6.11428Z" fill="#979494"/>
<path d="M13.5 10.5003C19.5 10.5003 19.5 6.11447 19.5 6.11447C19.5 6.11447 16.0811 5.47724 14.5 7.21093C13.5 8.30748 13.5 9.40385 13.5 10.5003Z" fill="#979494"/>
</svg>
