<svg width="24" height="29" viewBox="0 0 24 29" fill="none" xmlns="http://www.w3.org/2000/svg">
<path d="M22.8651 11.7309H18.3315C18.6865 11.24 18.9941 10.726 19.2225 10.1983C19.5105 9.53172 19.6585 8.87725 19.662 8.25257C19.6695 6.99845 19.1988 5.80132 18.371 4.96855C17.6662 4.25968 16.7581 3.8692 15.8139 3.8692C14.7077 3.8692 13.6837 4.40776 12.9701 5.29902C12.2564 4.40776 11.2324 3.8692 10.1262 3.8692C9.07344 3.8692 8.09238 4.34257 7.36344 5.20146C6.67011 6.01869 6.28459 7.09861 6.2779 8.24264C6.27423 8.86948 6.41713 9.52611 6.70227 10.1946C6.92806 10.7237 7.235 11.2389 7.59008 11.7309H3.25356C2.95654 11.7309 2.68219 11.8897 2.53433 12.1477L0.211516 16.2023C-0.0719019 16.6968 -0.0703909 17.2865 0.215401 17.78C0.499682 18.2704 1.00694 18.5633 1.57227 18.5633H3.24126L3.47718 22.7211C3.47287 23.3397 3.73707 23.9234 4.20569 24.3271C4.67518 24.7318 5.29252 24.9053 5.90231 24.805L7.68614 24.5736L7.69974 27.4675C7.7019 27.9236 8.0723 28.2925 8.52862 28.2925H18.7377C19.1955 28.2925 19.5666 27.9213 19.5666 27.4637V21.2388C22.1657 19.5448 23.5534 16.6375 23.6935 12.5884C23.7013 12.3637 23.6175 12.1455 23.4612 11.9838C23.3052 11.8222 23.09 11.7309 22.8651 11.7309ZM10.1262 5.52697C11.0323 5.52697 11.8565 6.2408 12.1764 7.30324C12.2819 7.65357 12.6044 7.89317 12.9701 7.89317C13.3357 7.89317 13.6582 7.65357 13.7638 7.30324C14.0836 6.2408 14.9076 5.52697 15.8139 5.52697C16.3134 5.52697 16.8041 5.74369 17.1952 6.13719C17.7141 6.65934 18.0092 7.42671 18.0042 8.24264C18.0021 8.64327 17.8997 9.07972 17.7007 9.54036C17.3327 10.3917 16.6879 11.2223 15.9763 11.9623C15.9616 11.9761 15.948 11.9905 15.9346 12.0054C14.845 13.1287 13.6086 14.0368 12.9679 14.4787C12.5638 14.2024 11.9229 13.7418 11.2292 13.1557C9.73482 11.8936 8.69656 10.6447 8.22686 9.54403C8.03129 9.08534 7.93329 8.65104 7.93567 8.25257C7.94452 6.74957 8.92709 5.52697 10.1262 5.52697ZM21.0897 17.0141C20.4676 18.3485 19.5631 19.3438 18.3243 20.0566C18.0673 20.2045 17.9088 20.4786 17.9088 20.7752V26.6348H9.35362L9.34261 24.2841L10.9093 23.9094C11.9357 23.664 12.7993 22.9814 13.2787 22.036C13.7892 21.0297 14.4381 19.7121 14.4446 19.6989C14.5026 19.5811 14.53 19.4561 14.5298 19.333C14.5298 19.0272 14.3597 18.7334 14.067 18.5892C13.6563 18.387 13.1594 18.556 12.9573 18.9667C12.9508 18.9799 12.3063 20.2884 11.8003 21.2863C11.5413 21.7966 11.0761 22.1651 10.524 22.297L8.36047 22.8144L5.67308 23.1632C5.6612 23.1647 5.64912 23.1664 5.63724 23.1686C5.46629 23.1984 5.34498 23.1207 5.28799 23.0714C5.22885 23.0205 5.13063 22.9078 5.13495 22.7241C5.1356 22.7017 5.13517 22.6794 5.13387 22.657L4.87139 18.0284C4.90614 17.9369 4.92514 17.838 4.92514 17.7344C4.92514 17.2766 4.55387 16.9055 4.09626 16.9055H1.71926L3.73405 13.3886H9.02681C10.6511 15.0004 12.4181 16.106 12.5336 16.1777C12.6674 16.2604 12.8187 16.3018 12.9701 16.3018C13.1222 16.3018 13.2746 16.2599 13.4089 16.1762C13.5233 16.1047 15.2773 14.9993 16.8962 13.3888H21.9848C21.8628 14.7824 21.5626 15.999 21.0897 17.0141Z" fill="#979494"/>
<path d="M13.0139 2.25353C13.4718 2.25353 13.8428 1.88247 13.8428 1.42464V0.828883C13.8428 0.371055 13.4718 0 13.0139 0C12.5561 0 12.1851 0.371055 12.1851 0.828883V1.42464C12.1851 1.88247 12.5561 2.25353 13.0139 2.25353Z" fill="#979494"/>
<path d="M5.38749 4.4686C5.54939 4.63092 5.76179 4.71209 5.9744 4.71209C6.18616 4.71209 6.39791 4.63157 6.55959 4.47011C6.8838 4.14698 6.88445 3.62223 6.56131 3.29802L6.0329 2.76831C5.70977 2.4441 5.18481 2.44345 4.86081 2.7668C4.53659 3.08994 4.53595 3.61468 4.85908 3.93889L5.38749 4.4686Z" fill="#979494"/>
<path d="M20.1449 4.71209C20.3573 4.71209 20.5699 4.63092 20.7318 4.4686L21.26 3.93889C21.5831 3.61468 21.5825 3.08994 21.2583 2.7668C20.9343 2.44345 20.4093 2.4441 20.0862 2.76831L19.558 3.29802C19.2346 3.62223 19.2353 4.14698 19.5595 4.47011C19.7214 4.63157 19.9332 4.71209 20.1449 4.71209Z" fill="#979494"/>
<path d="M2.86892 10.0713H3.49987C3.95769 10.0713 4.32875 9.70007 4.32875 9.24246C4.32875 8.78463 3.95769 8.41357 3.49987 8.41357H2.86892C2.41109 8.41357 2.04004 8.78463 2.04004 9.24246C2.04004 9.70007 2.41109 10.0713 2.86892 10.0713Z" fill="#979494"/>
<path d="M23.1709 8.41357H22.5281C22.0703 8.41357 21.6992 8.78463 21.6992 9.24246C21.6992 9.70007 22.0703 10.0713 22.5281 10.0713H23.1709C23.6287 10.0713 23.9998 9.70007 23.9998 9.24246C23.9998 8.78463 23.6287 8.41357 23.1709 8.41357Z" fill="#979494"/>
</svg>
