<svg width="11" height="9" viewBox="0 0 11 9" fill="none" xmlns="http://www.w3.org/2000/svg">
<path d="M2.75449 0C3.29792 0 3.79614 0.171953 4.23529 0.511094C4.65631 0.836231 4.93662 1.25035 5.10164 1.55148C5.26666 1.25033 5.54697 0.836231 5.96799 0.511094C6.40714 0.171953 6.90536 0 7.44879 0C8.96528 0 10.1089 1.23861 10.1089 2.88113C10.1089 4.65563 8.68215 5.86971 6.52227 7.70766C6.15549 8.01979 5.73975 8.37358 5.30764 8.7509C5.25068 8.8007 5.17753 8.82813 5.10164 8.82813C5.02575 8.82813 4.9526 8.8007 4.89564 8.75092C4.46349 8.37354 4.04777 8.01977 3.68078 7.70746C1.52113 5.86971 0.0943937 4.65563 0.0943937 2.88113C0.0943937 1.23861 1.238 0 2.75449 0Z" fill="#C4C4C4"/>
</svg>
