<svg width="24" height="26" viewBox="0 0 24 26" fill="none" xmlns="http://www.w3.org/2000/svg">
<path d="M16.5587 17.1785C19.4645 12.8371 19.0992 13.3787 19.1829 13.2655C20.2409 11.8448 20.8 10.1726 20.8 8.42969C20.8 3.80758 16.8607 0 12 0C7.15509 0 3.2 3.80006 3.2 8.42969C3.2 10.1715 3.77088 11.8874 4.86347 13.3273L7.44117 17.1786C4.68517 17.5818 0 18.7836 0 21.4297C0 22.3943 0.661227 23.7689 3.81131 24.8401C6.01088 25.5881 8.91899 26 12 26C17.7613 26 24 24.4526 24 21.4297C24 18.7831 19.3203 17.5827 16.5587 17.1785ZM6.19995 12.4894C6.19115 12.4763 6.18197 12.4635 6.17237 12.4509C5.2632 11.26 4.8 9.84857 4.8 8.42969C4.8 4.62018 8.02165 1.52344 12 1.52344C15.9701 1.52344 19.2 4.62155 19.2 8.42969C19.2 9.85085 18.7455 11.2144 17.8855 12.3739C17.8085 12.4707 18.2106 11.876 12 21.1549L6.19995 12.4894ZM12 24.4766C5.70699 24.4766 1.6 22.7153 1.6 21.4297C1.6 20.5656 3.71029 19.1448 8.38656 18.591L11.3253 22.9817C11.4722 23.2011 11.7266 23.334 11.9999 23.334C12.2733 23.334 12.5277 23.2011 12.6746 22.9817L15.6133 18.591C20.2897 19.1448 22.4 20.5656 22.4 21.4297C22.4 22.7044 18.33 24.4766 12 24.4766Z" fill="#979494"/>
<path d="M12 4.62109C9.7944 4.62109 8 6.32963 8 8.42969C8 10.5297 9.7944 12.2383 12 12.2383C14.2056 12.2383 16 10.5297 16 8.42969C16 6.32963 14.2056 4.62109 12 4.62109ZM12 10.7148C10.6766 10.7148 9.6 9.68972 9.6 8.42969C9.6 7.16965 10.6766 6.14453 12 6.14453C13.3234 6.14453 14.4 7.16965 14.4 8.42969C14.4 9.68972 13.3234 10.7148 12 10.7148Z" fill="#979494"/>
</svg>
