<svg width="31" height="31" viewBox="0 0 31 31" fill="none" xmlns="http://www.w3.org/2000/svg">
<g clip-path="url(#clip0)">
<path d="M13.6517 0C6.12438 0 0 6.12438 0 13.6517C0 21.1795 6.12438 27.3035 13.6517 27.3035C21.1795 27.3035 27.3035 21.1795 27.3035 13.6517C27.3035 6.12438 21.1795 0 13.6517 0ZM13.6517 24.7832C7.51393 24.7832 2.52032 19.7896 2.52032 13.6518C2.52032 7.51399 7.51393 2.52032 13.6517 2.52032C19.7896 2.52032 24.7832 7.51393 24.7832 13.6517C24.7832 19.7896 19.7896 24.7832 13.6517 24.7832Z" fill="#C4C4C4"/>
<path d="M30.6305 28.8489L23.4055 21.624C22.9132 21.1317 22.1159 21.1317 21.6236 21.624C21.1313 22.1159 21.1313 22.914 21.6236 23.4059L28.8486 30.6308C29.0947 30.877 29.4169 31 29.7395 31C30.0617 31 30.3843 30.877 30.6305 30.6308C31.1228 30.1389 31.1228 29.3408 30.6305 28.8489Z" fill="#C4C4C4"/>
</g>
<defs>
<clipPath id="clip0">
<rect width="31" height="31" fill="white"/>
</clipPath>
</defs>
</svg>
