<svg width="11" height="9" viewBox="0 0 11 9" fill="none" xmlns="http://www.w3.org/2000/svg">
<path d="M10.5417 5.03223H0.458333C0.205332 5.03223 0 4.80823 0 4.53223C0 4.25623 0.205332 4.03223 0.458333 4.03223H10.5417C10.7947 4.03223 11 4.25623 11 4.53223C11 4.80823 10.7947 5.03223 10.5417 5.03223Z" fill="#979494"/>
<path d="M10.5417 1.51831H0.458333C0.205332 1.51831 0 1.29431 0 1.01831C0 0.74231 0.205332 0.518311 0.458333 0.518311H10.5417C10.7947 0.518311 11 0.74231 11 1.01831C11 1.29431 10.7947 1.51831 10.5417 1.51831Z" fill="#979494"/>
<path d="M10.5417 8.5459H0.458333C0.205332 8.5459 0 8.3219 0 8.0459C0 7.7699 0.205332 7.5459 0.458333 7.5459H10.5417C10.7947 7.5459 11 7.7699 11 8.0459C11 8.3219 10.7947 8.5459 10.5417 8.5459Z" fill="#979494"/>
</svg>
