<svg width="20" height="16" viewBox="0 0 20 16" fill="none" xmlns="http://www.w3.org/2000/svg">
<path d="M15.446 0H3.98484C1.78755 0 0 1.78755 0 3.98484V10.1394C0 11.8927 1.15113 13.4198 2.81919 13.9086L4.74371 15.8332C4.8506 15.94 4.99528 16 5.14635 16C5.29726 16 5.4421 15.94 5.54883 15.8332L7.31429 14.0676H15.446C17.6433 14.0676 19.4308 12.2801 19.4308 10.0828V3.98484C19.4308 1.78755 17.6433 0 15.446 0ZM18.2923 10.0828C18.2923 11.6523 17.0155 12.9291 15.446 12.9291H7.07858C6.92767 12.9291 6.78283 12.9891 6.67609 13.0959L5.14635 14.6256L3.51713 12.9964C3.44404 12.9233 3.35243 12.8714 3.25206 12.8465C2.00769 12.5368 1.13853 11.4237 1.13853 10.1394V3.98484C1.13853 2.41537 2.41537 1.13853 3.98484 1.13853H15.446C17.0155 1.13853 18.2923 2.41537 18.2923 3.98484V10.0828Z" fill="#C4C4C4"/>
</svg>
