<svg width="24" height="28" viewBox="0 0 24 28" fill="none" xmlns="http://www.w3.org/2000/svg">
<path d="M14.2609 10.4998C14.2609 8.84134 12.8307 7.49207 11.0726 7.49207C9.31456 7.49207 7.88428 8.84134 7.88428 10.4998C7.88428 12.1583 9.31456 13.5076 11.0726 13.5076C12.8307 13.5076 14.2609 12.1583 14.2609 10.4998ZM9.62337 10.4998C9.62337 9.74596 10.2735 9.13266 11.0726 9.13266C11.8717 9.13266 12.5219 9.74596 12.5219 10.4998C12.5219 11.2537 11.8717 11.867 11.0726 11.867C10.2735 11.867 9.62337 11.2537 9.62337 10.4998Z" fill="#979494"/>
<path d="M23.994 13.9097C23.9495 13.5301 23.6249 13.2142 23.1964 13.1825C23.0027 13.1687 23.0116 13.182 21.6824 13.4955C23.8018 6.82404 18.4941 0 11.0722 0C4.96697 0 0 4.71019 0 10.4998C0 17.0393 6.23853 21.8937 12.9852 20.7862V22.9789C11.2034 22.3243 9.27516 23.5723 9.27516 25.3745C9.27516 26.0578 9.554 26.7086 10.0603 27.2069C11.1347 28.2642 12.8645 28.2645 13.9392 27.2069C14.4455 26.7087 14.7243 26.0578 14.7243 25.3745V20.3975L22.2604 18.5591V21.229C20.4786 20.5744 18.5503 21.8223 18.5503 23.6245C18.5503 25.0418 19.7726 26.1948 21.2749 26.1948C22.8843 26.1948 24.1594 24.8748 23.983 23.3447C23.9936 23.2937 23.9995 23.241 23.9995 23.187C23.9995 13.3377 24.0025 13.9834 23.994 13.9097ZM1.73909 10.4998C1.73909 5.61481 5.9259 1.64059 11.0722 1.64059C16.2185 1.64059 20.4054 5.61481 20.4054 10.4998C20.4054 11.7113 20.1507 12.8784 19.6495 13.975C13.1966 15.4969 13.6217 15.3938 13.5445 15.4216C13.2621 15.5237 13.0701 15.7486 13.008 16.0033C12.9758 16.1352 12.9852 15.938 12.9852 19.1156C7.15776 20.2483 1.73909 16.0894 1.73909 10.4998ZM11.9997 26.3588C11.4748 26.3588 11.0143 25.8989 11.0143 25.3745C11.0143 24.8618 11.4563 24.4448 11.9997 24.4448C12.5431 24.4448 12.9852 24.8618 12.9852 25.3745C12.9852 25.8989 12.5247 26.3588 11.9997 26.3588ZM14.7243 18.7029V16.8276C19.1116 15.7929 8.95482 18.1884 22.2604 15.0503V16.8645L14.7243 18.7029ZM21.2749 24.5542C20.7315 24.5542 20.2894 24.1371 20.2894 23.6245C20.2894 23.1119 20.7315 22.6948 21.2749 22.6948C21.8183 22.6948 22.2604 23.1119 22.2604 23.6245C22.2604 24.1371 21.8183 24.5542 21.2749 24.5542Z" fill="#979494"/>
</svg>
