<svg width="24" height="24" viewBox="0 0 24 24" fill="none" xmlns="http://www.w3.org/2000/svg">
<path d="M20.5 24H3.75C1.682 24 0 22.318 0 20.25V2.75C0 1.233 1.233 0 2.75 0H15.25C16.767 0 18 1.233 18 2.75V3H21.25C22.767 3 24 4.233 24 5.75V20.25C24 22.166 22.556 23.75 20.699 23.973C20.636 23.991 20.569 24 20.5 24ZM18 4.5V20.25C18 21.491 19.009 22.5 20.25 22.5C21.491 22.5 22.5 21.491 22.5 20.25V5.75C22.5 5.061 21.939 4.5 21.25 4.5H18ZM2.75 1.5C2.061 1.5 1.5 2.061 1.5 2.75V20.25C1.5 21.491 2.509 22.5 3.75 22.5H17.252C16.78 21.873 16.5 21.093 16.5 20.25V2.75C16.5 2.061 15.939 1.5 15.25 1.5H2.75Z" fill="#979494"/>
<path d="M8.25 9H3.75C3.336 9 3 8.664 3 8.25V3.75C3 3.336 3.336 3 3.75 3H8.25C8.664 3 9 3.336 9 3.75V8.25C9 8.664 8.664 9 8.25 9ZM4.5 7.5H7.5V4.5H4.5V7.5Z" fill="#979494"/>
<path d="M14.25 5.5H11.75C11.336 5.5 11 5.164 11 4.75C11 4.336 11.336 4 11.75 4H14.25C14.664 4 15 4.336 15 4.75C15 5.164 14.664 5.5 14.25 5.5Z" fill="#979494"/>
<path d="M14.25 8.5H11.75C11.336 8.5 11 8.164 11 7.75C11 7.336 11.336 7 11.75 7H14.25C14.664 7 15 7.336 15 7.75C15 8.164 14.664 8.5 14.25 8.5Z" fill="#979494"/>
<path d="M14.25 12.5H3.75C3.336 12.5 3 12.164 3 11.75C3 11.336 3.336 11 3.75 11H14.25C14.664 11 15 11.336 15 11.75C15 12.164 14.664 12.5 14.25 12.5Z" fill="#979494"/>
<path d="M14.25 16.25H3.75C3.336 16.25 3 15.914 3 15.5C3 15.086 3.336 14.75 3.75 14.75H14.25C14.664 14.75 15 15.086 15 15.5C15 15.914 14.664 16.25 14.25 16.25Z" fill="#979494"/>
<path d="M14.25 20H3.75C3.336 20 3 19.664 3 19.25C3 18.836 3.336 18.5 3.75 18.5H14.25C14.664 18.5 15 18.836 15 19.25C15 19.664 14.664 20 14.25 20Z" fill="#979494"/>
</svg>
