<svg width="14" height="14" viewBox="0 0 14 14" fill="none" xmlns="http://www.w3.org/2000/svg">
<path d="M12.8134 1.46661C11.279 -0.0347291 8.826 -0.0344025 7.29198 1.46735L0.85818 7.90118C-0.305179 9.09197 -0.282946 11.0004 0.907841 12.1637C2.07904 13.308 3.94952 13.308 5.12071 12.1637L10.9466 6.3378C11.704 5.58043 11.704 4.35245 10.9466 3.59507C10.1892 2.83769 8.96127 2.83769 8.20389 3.59507L2.63127 9.16766C2.4369 9.36892 2.44248 9.68962 2.64374 9.88398C2.84007 10.0736 3.1513 10.0736 3.34762 9.88398L8.92022 4.31139C9.28975 3.95739 9.87629 3.97 10.2303 4.33953C10.5736 4.69791 10.5736 5.26311 10.2303 5.62148L4.40439 11.4474C3.61736 12.2232 2.35037 12.2141 1.57453 11.4271C0.806531 10.648 0.806531 9.39658 1.57453 8.61751L8.00834 2.18367C9.15436 1.03723 11.0127 1.03691 12.1592 2.1829C13.3056 3.3289 13.3059 5.1873 12.1599 6.33374L5.72611 12.7676C5.51361 12.9496 5.48885 13.2694 5.67084 13.4819C5.85283 13.6944 6.17264 13.7191 6.38515 13.5371C6.40498 13.5202 6.42344 13.5017 6.44042 13.4819L12.8742 7.04804C14.3987 5.48998 14.3715 2.99107 12.8134 1.46661Z" fill="#1A91FF"/>
</svg>
