<svg width="18" height="17" viewBox="0 0 18 17" fill="none" xmlns="http://www.w3.org/2000/svg">
<path d="M16.8003 2.06851L15.229 0.527891C14.511 -0.17598 13.3429 -0.175947 12.625 0.527891C11.949 1.19066 1.6244 11.3136 0.934427 11.9901C0.860935 12.0621 0.811692 12.1579 0.794149 12.2515L0.00849778 16.4112C-0.0219488 16.5725 0.0304776 16.7381 0.148776 16.8541C0.267209 16.9702 0.436207 17.0215 0.600496 16.9917L4.843 16.2213C4.94105 16.2034 5.03744 16.1546 5.10971 16.0838L16.8003 4.6216C17.5199 3.9161 17.52 2.77411 16.8003 2.06851ZM1.14203 15.8802L1.61729 13.364L3.70845 15.4143L1.14203 15.8802ZM4.75051 15.0272L2.01205 12.3423L12.01 2.53963L14.7484 5.2246L4.75051 15.0272ZM16.0818 3.91726L15.4668 4.52026L12.7284 1.83529L13.3434 1.23229C13.6651 0.916799 14.1887 0.916765 14.5105 1.23229L16.0818 2.77292C16.4044 3.08918 16.4044 3.60097 16.0818 3.91726Z" fill="#C4C4C4"/>
</svg>
