<svg width="15" height="19" viewBox="0 0 15 19" fill="none" xmlns="http://www.w3.org/2000/svg">
<path d="M7.5 0C3.81682 0 0.820312 2.99651 0.820312 6.67969C0.820312 7.92411 1.16502 9.13855 1.8174 10.1922L7.11978 18.7369C7.22135 18.9005 7.40029 19 7.59274 19C7.59422 19 7.59567 19 7.59715 19C7.79127 18.9985 7.97058 18.8959 8.0703 18.7294L13.2375 10.1019C13.8539 9.07057 14.1797 7.88719 14.1797 6.67969C14.1797 2.99651 11.1832 0 7.5 0ZM12.2821 9.53036L7.58431 17.3741L2.76362 9.60561C2.2206 8.72864 1.92617 7.71689 1.92617 6.67969C1.92617 3.61037 4.43068 1.10586 7.5 1.10586C10.5693 1.10586 13.0701 3.61037 13.0701 6.67969C13.0701 7.68613 12.7951 8.67202 12.2821 9.53036Z" fill="#C4C4C4"/>
<path d="M7.5 3.33984C5.65841 3.33984 4.16016 4.8381 4.16016 6.67969C4.16016 8.50951 5.63403 10.0195 7.5 10.0195C9.38898 10.0195 10.8398 8.4894 10.8398 6.67969C10.8398 4.8381 9.34159 3.33984 7.5 3.33984ZM7.5 8.91367C6.26585 8.91367 5.26602 7.91049 5.26602 6.67969C5.26602 5.45196 6.27227 4.4457 7.5 4.4457C8.72773 4.4457 9.73027 5.45196 9.73027 6.67969C9.73027 7.89253 8.7537 8.91367 7.5 8.91367Z" fill="#C4C4C4"/>
</svg>
