<svg width="22" height="4" viewBox="0 0 22 4" fill="none" xmlns="http://www.w3.org/2000/svg">
<path d="M4.0616 1.51393C4.02856 1.41226 3.9409 1.33861 3.83528 1.32319L2.76571 1.16773L2.28733 0.199254C2.19293 0.00769911 1.87956 0.00769911 1.78516 0.199254L1.30679 1.16773L0.239745 1.32319C0.13417 1.33857 0.0465142 1.41252 0.013729 1.51393C-0.0193139 1.61559 0.00840092 1.72679 0.0848853 1.801L0.858452 2.55299L0.676135 3.61729C0.658217 3.7223 0.701358 3.82874 0.787596 3.89147C0.874135 3.95395 0.988389 3.96207 1.08279 3.91248L2.03614 3.40975L2.99232 3.91248C3.03323 3.93405 3.07805 3.94471 3.12256 3.94471C3.18053 3.94471 3.23849 3.92679 3.28782 3.89151C3.3741 3.82848 3.4172 3.72235 3.39928 3.61733L3.21696 2.55304L3.99053 1.80104C4.06693 1.72705 4.09464 1.61533 4.0616 1.51393Z" fill="#C4C4C4"/>
<path d="M8.54309 1.51393C8.51005 1.41226 8.42239 1.33861 8.31677 1.32319L7.24719 1.16773L6.76882 0.199254C6.67442 0.00769911 6.36105 0.00769911 6.26665 0.199254L5.78828 1.16773L4.72119 1.32319C4.61562 1.33857 4.52796 1.41252 4.49517 1.51393C4.46213 1.61559 4.48985 1.72679 4.56633 1.801L5.3399 2.55299L5.15758 3.61729C5.13966 3.7223 5.1828 3.82904 5.26904 3.89147C5.35532 3.95395 5.47014 3.96207 5.56424 3.91248L6.51758 3.40975L7.47377 3.91248C7.51467 3.93405 7.55949 3.94471 7.60401 3.94471C7.66197 3.94471 7.71994 3.92679 7.76926 3.89151C7.85555 3.82848 7.89864 3.72235 7.88073 3.61733L7.69841 2.55304L8.47198 1.80104C8.54842 1.72705 8.57613 1.61533 8.54309 1.51393Z" fill="#C4C4C4"/>
<path d="M13.0236 1.51393C12.9906 1.41226 12.9029 1.33861 12.7973 1.32319L11.7277 1.16773L11.2493 0.199254C11.1549 0.00769911 10.8415 0.00769911 10.7471 0.199254L10.2687 1.16773L9.20166 1.32319C9.09608 1.33857 9.00843 1.41252 8.97564 1.51393C8.9426 1.61559 8.97032 1.72679 9.0468 1.801L9.82037 2.55299L9.63805 3.61729C9.62013 3.7223 9.66327 3.82904 9.74951 3.89147C9.83579 3.95395 9.9506 3.96207 10.0447 3.91248L10.9981 3.40975L11.9543 3.91248C11.9952 3.93405 12.04 3.94471 12.0845 3.94471C12.1425 3.94471 12.2004 3.92679 12.2498 3.89151C12.3361 3.82848 12.3792 3.72235 12.3612 3.61733L12.1789 2.55304L12.9525 1.80104C13.0289 1.72705 13.0566 1.61533 13.0236 1.51393Z" fill="#C4C4C4"/>
<path d="M17.505 1.51364C17.472 1.41197 17.3843 1.33833 17.2787 1.3229L16.2091 1.16744L15.7307 0.19901C15.6363 0.00745496 15.323 0.00745496 15.2286 0.19901L14.7502 1.16748L13.6831 1.32294C13.5775 1.33833 13.4899 1.41228 13.4571 1.51368C13.424 1.61535 13.4518 1.72655 13.5282 1.80076L14.3018 2.55275L14.1195 3.61704C14.1016 3.72206 14.1447 3.82849 14.231 3.89123C14.3175 3.9537 14.432 3.96183 14.5262 3.91224L15.4795 3.40951L16.4357 3.91224C16.4766 3.93381 16.5214 3.94447 16.566 3.94447C16.6239 3.94447 16.6819 3.92655 16.7312 3.89127C16.8175 3.82824 16.8606 3.7221 16.8427 3.61709L16.6604 2.55279L17.4339 1.8008C17.5103 1.72706 17.538 1.61504 17.505 1.51364Z" fill="#C4C4C4"/>
<path d="M21.9864 1.51394C21.9534 1.41228 21.8657 1.33863 21.7601 1.3232L20.6906 1.16779L20.2122 0.199315C20.1178 0.00776019 19.8044 0.00776019 19.71 0.199315L19.2316 1.16779L18.1645 1.3232C18.059 1.33863 17.9713 1.41254 17.9385 1.51394C17.9055 1.61561 17.9332 1.72681 18.0097 1.80102L18.7833 2.55301L18.6009 3.6173C18.583 3.72232 18.6262 3.82875 18.7124 3.89149C18.7989 3.95392 18.9135 3.96208 19.0076 3.9125L19.961 3.40976L20.9172 3.9125C20.9581 3.93407 21.0029 3.94472 21.0474 3.94472C21.1054 3.94472 21.1633 3.92681 21.2127 3.89153C21.2989 3.82849 21.342 3.72236 21.3241 3.61735L21.1418 2.55305L21.9154 1.80106C21.9918 1.72707 22.0195 1.61531 21.9864 1.51394ZM20.6449 2.25416C20.5788 2.31857 20.5482 2.4113 20.5639 2.50231L20.6754 3.15264L20.0909 2.84541C20.0503 2.82384 20.0055 2.81319 19.9606 2.81319C19.9158 2.81319 19.871 2.82384 19.8304 2.84541L19.249 3.15182L19.3605 2.50235C19.3761 2.41134 19.3456 2.31836 19.2795 2.25421L18.8079 1.79573L19.4579 1.70107C19.5489 1.68792 19.6276 1.63047 19.6685 1.54789L19.9606 0.956079L20.2527 1.54789C20.2937 1.63077 20.3723 1.68792 20.4636 1.70107L21.1162 1.79603L20.6449 2.25416Z" fill="#C4C4C4"/>
</svg>
