<svg width="17" height="17" viewBox="0 0 17 17" fill="none" xmlns="http://www.w3.org/2000/svg">
<path d="M16.2816 2.30573C15.9225 2.27298 15.6048 2.53758 15.5721 2.89668L15.4856 3.84565C14.0179 1.54068 11.4701 0 8.51797 0C5.34217 0 2.54343 1.81255 1.1541 4.53297C0.99009 4.85411 1.11747 5.24739 1.43861 5.4114C1.75981 5.57541 2.15302 5.44806 2.31704 5.12689C3.49283 2.8246 5.85399 1.30582 8.51797 1.30582C10.9461 1.30582 13.1373 2.57022 14.3926 4.55106L13.4617 3.88617C13.1682 3.67661 12.7605 3.74458 12.5509 4.038C12.3414 4.33145 12.4093 4.73919 12.7027 4.94878L15.5258 6.965C15.9395 7.25996 16.5102 6.98995 16.5554 6.49298L16.8725 3.01525C16.9052 2.65611 16.6407 2.33847 16.2816 2.30573Z" fill="#979494"/>
<path d="M15.5972 11.303C15.2761 11.139 14.8828 11.2664 14.7188 11.5875C13.543 13.8898 11.1819 15.4086 8.51788 15.4086C6.0898 15.4086 3.89856 14.1442 2.64321 12.1633L3.57416 12.8282C3.86762 13.0378 4.27536 12.9698 4.48494 12.6764C4.6945 12.3829 4.62653 11.9752 4.33311 11.7656L1.51008 9.74938C1.10139 9.4574 0.526109 9.71932 0.480405 10.2214L0.163384 13.6991C0.13064 14.0582 0.395233 14.3759 0.754302 14.4086C1.11386 14.4413 1.43108 14.1765 1.46379 13.8177L1.5503 12.8687C3.01798 15.1737 5.56577 16.7144 8.51788 16.7144C11.6937 16.7144 14.4924 14.9018 15.8818 12.1814C16.0458 11.8603 15.9184 11.467 15.5972 11.303Z" fill="#979494"/>
</svg>
