<svg width="9" height="9" viewBox="0 0 9 9" fill="none" xmlns="http://www.w3.org/2000/svg">
<path d="M8.80595 3.50519C8.73836 3.29724 8.55907 3.14659 8.34303 3.11504L6.15526 2.79705L5.17677 0.816171C4.98368 0.424354 4.34269 0.424354 4.14959 0.816171L3.17111 2.79714L0.988434 3.11513C0.772487 3.14659 0.593189 3.29785 0.526129 3.50527C0.458541 3.71322 0.515231 3.94068 0.671676 4.09247L2.25397 5.63065L1.88105 7.80761C1.8444 8.02241 1.93264 8.24012 2.10904 8.36844C2.28605 8.49623 2.52037 8.51284 2.71285 8.41142L4.66296 7.3831L6.61879 8.41142C6.70247 8.45554 6.79414 8.47733 6.88519 8.47733C7.00375 8.47733 7.12232 8.44069 7.22322 8.36853C7.3997 8.23959 7.48786 8.0225 7.45121 7.8077L7.07828 5.63073L8.66058 4.09256C8.81685 3.94174 8.87354 3.71261 8.80595 3.50519Z" fill="#1A91FF"/>
</svg>
