<svg width="9" height="9" viewBox="0 0 9 9" fill="none" xmlns="http://www.w3.org/2000/svg">
<path d="M8.97196 3.50577C8.90437 3.29782 8.72508 3.14717 8.50904 3.11562L6.32127 2.79772L5.34278 0.816751C5.14969 0.424934 4.5087 0.424934 4.31561 0.816751L3.33712 2.79772L1.15445 3.11562C0.9385 3.14717 0.759205 3.29834 0.692145 3.50577C0.624557 3.71372 0.681247 3.94118 0.837692 4.09296L2.41998 5.63114L2.04706 7.8081C2.01041 8.02291 2.09865 8.24061 2.27505 8.36893C2.45206 8.49664 2.68638 8.51334 2.87886 8.41191L4.82898 7.38359L6.7848 8.41191C6.86847 8.45603 6.96014 8.47783 7.0512 8.47783C7.16976 8.47783 7.28833 8.44118 7.38923 8.36902C7.56571 8.24008 7.65387 8.023 7.61722 7.80819L7.24429 5.63123L8.82659 4.09305C8.98286 3.9417 9.03955 3.7131 8.97196 3.50577ZM6.22784 5.01986C6.09267 5.15161 6.03018 5.34127 6.06226 5.52743L6.29024 6.85765L5.09467 6.22923C5.01161 6.18511 4.91994 6.16331 4.82827 6.16331C4.7366 6.16331 4.64493 6.18511 4.56188 6.22923L3.37263 6.85598L3.60062 5.52752C3.6327 5.34136 3.5703 5.15117 3.43503 5.01994L2.47035 4.08215L3.79995 3.88853C3.9861 3.86163 4.14712 3.74412 4.23079 3.5752L4.82827 2.36468L5.42575 3.5752C5.50943 3.74474 5.67035 3.86163 5.85712 3.88853L7.19191 4.08277L6.22784 5.01986Z" fill="#1A91FF"/>
</svg>
