<svg width="13" height="17" viewBox="0 0 13 17" fill="none" xmlns="http://www.w3.org/2000/svg">
<path d="M11.75 2.125H9V1.59375C9 0.714963 8.32709 0 7.5 0H5.5C4.67291 0 4 0.714963 4 1.59375V2.125H1.25C0.56075 2.125 0 2.7208 0 3.45312V5.3125C0 5.60588 0.223875 5.84375 0.5 5.84375H0.77325L1.20522 15.4821C1.24338 16.3332 1.9015 17 2.7035 17H10.2965C11.0985 17 11.7567 16.3332 11.7948 15.4821L12.2268 5.84375H12.5C12.7761 5.84375 13 5.60588 13 5.3125V3.45312C13 2.7208 12.4392 2.125 11.75 2.125ZM5 1.59375C5 1.30083 5.22431 1.0625 5.5 1.0625H7.5C7.77569 1.0625 8 1.30083 8 1.59375V2.125H5V1.59375ZM1 3.45312C1 3.30667 1.11216 3.1875 1.25 3.1875H11.75C11.8878 3.1875 12 3.30667 12 3.45312V4.78125C11.8459 4.78125 1.63853 4.78125 1 4.78125V3.45312ZM10.7959 15.4315C10.7832 15.7152 10.5638 15.9375 10.2965 15.9375H2.7035C2.43616 15.9375 2.21678 15.7152 2.20409 15.4315L1.77437 5.84375H11.2256L10.7959 15.4315Z" fill="#C4C4C4"/>
</svg>
