<svg width="31" height="24" viewBox="0 0 31 24" fill="none" xmlns="http://www.w3.org/2000/svg">
<path d="M20.5224 11.2172L13.2568 6.60186C12.9768 6.42401 12.6239 6.4146 12.3352 6.57724C12.0463 6.73989 11.8672 7.04906 11.8672 7.38463V16.6154C11.8672 16.951 12.0463 17.2601 12.3352 17.4228C12.4724 17.5001 12.624 17.5385 12.7754 17.5385C12.9427 17.5385 13.1097 17.4915 13.2567 17.3982L20.5224 12.7828C20.7879 12.6141 20.9492 12.3183 20.9492 12C20.9492 11.6817 20.788 11.3859 20.5224 11.2172ZM13.6837 14.9499V9.05004L18.3275 12L13.6837 14.9499Z" fill="#979494"/>
<path d="M26.459 0H4.54102C2.0371 0 0 2.07046 0 4.61538V19.3846C0 21.9295 2.0371 24 4.54102 24H26.459C28.9629 24 31 21.9295 31 19.3846V4.61538C31 2.07046 28.9629 0 26.459 0ZM29.1836 19.3846C29.1836 20.9116 27.9613 22.1538 26.459 22.1538H4.54102C3.03867 22.1538 1.81641 20.9116 1.81641 19.3846V4.61538C1.81641 3.08843 3.03867 1.84615 4.54102 1.84615H26.459C27.9613 1.84615 29.1836 3.08843 29.1836 4.61538V19.3846Z" fill="#979494"/>
</svg>
