<svg width="24" height="24" viewBox="0 0 24 24" fill="none" xmlns="http://www.w3.org/2000/svg">
<path d="M23.2788 6.10352e-05H0.72142C0.322948 6.10352e-05 0 0.314819 0 0.703184V11.4718C0 15.2622 2.11297 18.7586 5.51436 20.5964L11.6502 23.9117C11.759 23.9705 11.8796 24 12 24C12.1204 24 12.241 23.9705 12.3498 23.9117L18.4856 20.5964C21.887 18.7586 24 15.2622 24 11.4718V0.703184C24.0002 0.314819 23.6771 6.10352e-05 23.2788 6.10352e-05ZM22.5573 11.4718C22.5573 14.7514 20.7292 17.7764 17.7862 19.3665L12 22.4929L6.2138 19.3665C3.271 17.7764 1.44284 14.7514 1.44284 11.4718V1.40631H22.5573V11.4718Z" fill="#979494"/>
<path d="M6.49756 10.6425L7.78662 6.36517H9.09131L7.11084 12.0527H5.88818L3.91553 6.36517H5.21631L6.49756 10.6425ZM10.8022 10.0488V12.0527H9.63037V6.36517H11.8491C12.2762 6.36517 12.6512 6.4433 12.9741 6.59955C13.2996 6.7558 13.5496 6.97845 13.7241 7.26752C13.8986 7.55398 13.9858 7.8808 13.9858 8.24799C13.9858 8.80528 13.7944 9.24538 13.4116 9.5683C13.0314 9.88861 12.5041 10.0488 11.8296 10.0488H10.8022ZM10.8022 9.09955H11.8491C12.159 9.09955 12.3947 9.02663 12.5562 8.8808C12.7202 8.73497 12.8022 8.52663 12.8022 8.2558C12.8022 7.97715 12.7202 7.75189 12.5562 7.58002C12.3921 7.40814 12.1655 7.3196 11.8765 7.31439H10.8022V9.09955ZM19.4194 12.0527H18.2476L15.9663 8.31049V12.0527H14.7944V6.36517H15.9663L18.2515 10.1152V6.36517H19.4194V12.0527Z" fill="#979494"/>
</svg>
