<svg width="72" height="156" viewBox="0 0 72 156" fill="none" xmlns="http://www.w3.org/2000/svg">
<path d="M12.9297 4C12.9297 1.79086 14.7205 0 16.9297 0H67.1134C69.3225 0 71.1134 1.79086 71.1134 4V7.70809C71.1134 13.2309 66.6363 17.7081 61.1134 17.7081H16.9297C14.7205 17.7081 12.9297 15.9172 12.9297 13.7081V4Z" fill="#DDEFFF"/>
<path d="M10.4014 41.9457C10.4014 39.7366 12.1922 37.9457 14.4014 37.9457H62.0554C64.2645 37.9457 66.0554 39.7366 66.0554 41.9457V45.6538C66.0554 51.1767 61.5782 55.6538 56.0554 55.6538H14.4014C12.1922 55.6538 10.4014 53.863 10.4014 51.6538V41.9457Z" fill="#DDEFFF"/>
<rect x="10.4014" width="17.7081" height="93.5999" rx="4" fill="#DDEFFF"/>
<path d="M2.52832 14.4001C2.52832 12.1909 4.31918 10.4001 6.52832 10.4001H56.712C58.9212 10.4001 60.712 12.1909 60.712 14.4001V18.1082C60.712 23.631 56.2349 28.1082 50.712 28.1082H6.52832C4.31918 28.1082 2.52832 26.3173 2.52832 24.1082V14.4001Z" fill="#1A91FF"/>
<path d="M0 52.3458C0 50.1367 1.79086 48.3458 4 48.3458H51.654C53.8631 48.3458 55.654 50.1367 55.654 52.3458V56.0539C55.654 61.5768 51.1768 66.0539 45.654 66.0539H4C1.79086 66.0539 0 64.2631 0 62.0539V52.3458Z" fill="#1A91FF"/>
<rect y="10.4001" width="17.7081" height="93.5999" rx="4" fill="#1A91FF"/>
<path d="M7.85938 147.352H3.35938V152H1.01562V140.625H8.42188V142.523H3.35938V145.461H7.85938V147.352ZM12.0156 152H9.75V143.547H12.0156V152ZM9.61719 141.359C9.61719 141.021 9.72917 140.742 9.95312 140.523C10.1823 140.305 10.4922 140.195 10.8828 140.195C11.2682 140.195 11.5755 140.305 11.8047 140.523C12.0339 140.742 12.1484 141.021 12.1484 141.359C12.1484 141.703 12.0312 141.984 11.7969 142.203C11.5677 142.422 11.263 142.531 10.8828 142.531C10.5026 142.531 10.1953 142.422 9.96094 142.203C9.73177 141.984 9.61719 141.703 9.61719 141.359ZM15.9609 143.547L16.0312 144.523C16.6354 143.768 17.4453 143.391 18.4609 143.391C19.3568 143.391 20.0234 143.654 20.4609 144.18C20.8984 144.706 21.1224 145.492 21.1328 146.539V152H18.875V146.594C18.875 146.115 18.7708 145.768 18.5625 145.555C18.3542 145.336 18.0078 145.227 17.5234 145.227C16.888 145.227 16.4115 145.497 16.0938 146.039V152H13.8359V143.547H15.9609ZM22.5 147.711C22.5 146.393 22.7943 145.344 23.3828 144.562C23.9766 143.781 24.7865 143.391 25.8125 143.391C26.6354 143.391 27.3151 143.698 27.8516 144.312V140H30.1172V152H28.0781L27.9688 151.102C27.4062 151.805 26.6823 152.156 25.7969 152.156C24.8021 152.156 24.0026 151.766 23.3984 150.984C22.7995 150.198 22.5 149.107 22.5 147.711ZM24.7578 147.875C24.7578 148.667 24.8958 149.273 25.1719 149.695C25.4479 150.117 25.849 150.328 26.375 150.328C27.0729 150.328 27.5651 150.034 27.8516 149.445V146.109C27.5703 145.521 27.0833 145.227 26.3906 145.227C25.3021 145.227 24.7578 146.109 24.7578 147.875Z" fill="#1A91FF"/>
<path d="M35.7578 152.156C34.5182 152.156 33.5078 151.776 32.7266 151.016C31.9505 150.255 31.5625 149.242 31.5625 147.977V147.758C31.5625 146.909 31.7266 146.151 32.0547 145.484C32.3828 144.812 32.8464 144.297 33.4453 143.938C34.0495 143.573 34.737 143.391 35.5078 143.391C36.6641 143.391 37.5729 143.755 38.2344 144.484C38.901 145.214 39.2344 146.247 39.2344 147.586V148.508H33.8516C33.9245 149.06 34.1432 149.503 34.5078 149.836C34.8776 150.169 35.3438 150.336 35.9062 150.336C36.776 150.336 37.4557 150.021 37.9453 149.391L39.0547 150.633C38.7161 151.112 38.2578 151.487 37.6797 151.758C37.1016 152.023 36.4609 152.156 35.7578 152.156ZM35.5 145.219C35.0521 145.219 34.6875 145.37 34.4062 145.672C34.1302 145.974 33.9531 146.406 33.875 146.969H37.0156V146.789C37.0052 146.289 36.8698 145.904 36.6094 145.633C36.349 145.357 35.9792 145.219 35.5 145.219ZM45.2734 145.664C44.9661 145.622 44.6953 145.602 44.4609 145.602C43.6068 145.602 43.0469 145.891 42.7812 146.469V152H40.5234V143.547H42.6562L42.7188 144.555C43.1719 143.779 43.7995 143.391 44.6016 143.391C44.8516 143.391 45.0859 143.424 45.3047 143.492L45.2734 145.664Z" fill="#C4C4C4"/>
</svg>
