<svg width="48" height="24" viewBox="0 0 48 24" fill="none" xmlns="http://www.w3.org/2000/svg">
<path d="M7.85938 13.3516H3.35938V18H1.01562V6.625H8.42188V8.52344H3.35938V11.4609H7.85938V13.3516ZM12.0156 18H9.75V9.54688H12.0156V18ZM9.61719 7.35938C9.61719 7.02083 9.72917 6.74219 9.95312 6.52344C10.1823 6.30469 10.4922 6.19531 10.8828 6.19531C11.2682 6.19531 11.5755 6.30469 11.8047 6.52344C12.0339 6.74219 12.1484 7.02083 12.1484 7.35938C12.1484 7.70312 12.0312 7.98438 11.7969 8.20312C11.5677 8.42188 11.263 8.53125 10.8828 8.53125C10.5026 8.53125 10.1953 8.42188 9.96094 8.20312C9.73177 7.98438 9.61719 7.70312 9.61719 7.35938ZM15.9609 9.54688L16.0312 10.5234C16.6354 9.76823 17.4453 9.39062 18.4609 9.39062C19.3568 9.39062 20.0234 9.65365 20.4609 10.1797C20.8984 10.7057 21.1224 11.4922 21.1328 12.5391V18H18.875V12.5938C18.875 12.1146 18.7708 11.7682 18.5625 11.5547C18.3542 11.3359 18.0078 11.2266 17.5234 11.2266C16.888 11.2266 16.4115 11.4974 16.0938 12.0391V18H13.8359V9.54688H15.9609ZM22.5 13.7109C22.5 12.3932 22.7943 11.3438 23.3828 10.5625C23.9766 9.78125 24.7865 9.39062 25.8125 9.39062C26.6354 9.39062 27.3151 9.69792 27.8516 10.3125V6H30.1172V18H28.0781L27.9688 17.1016C27.4062 17.8047 26.6823 18.1562 25.7969 18.1562C24.8021 18.1562 24.0026 17.7656 23.3984 16.9844C22.7995 16.1979 22.5 15.1068 22.5 13.7109ZM24.7578 13.875C24.7578 14.6667 24.8958 15.2734 25.1719 15.6953C25.4479 16.1172 25.849 16.3281 26.375 16.3281C27.0729 16.3281 27.5651 16.0339 27.8516 15.4453V12.1094C27.5703 11.5208 27.0833 11.2266 26.3906 11.2266C25.3021 11.2266 24.7578 12.1094 24.7578 13.875Z" fill="#1A91FF"/>
<path d="M35.7578 18.1562C34.5182 18.1562 33.5078 17.776 32.7266 17.0156C31.9505 16.2552 31.5625 15.2422 31.5625 13.9766V13.7578C31.5625 12.9089 31.7266 12.151 32.0547 11.4844C32.3828 10.8125 32.8464 10.2969 33.4453 9.9375C34.0495 9.57292 34.737 9.39062 35.5078 9.39062C36.6641 9.39062 37.5729 9.75521 38.2344 10.4844C38.901 11.2135 39.2344 12.2474 39.2344 13.5859V14.5078H33.8516C33.9245 15.0599 34.1432 15.5026 34.5078 15.8359C34.8776 16.1693 35.3438 16.3359 35.9062 16.3359C36.776 16.3359 37.4557 16.0208 37.9453 15.3906L39.0547 16.6328C38.7161 17.112 38.2578 17.487 37.6797 17.7578C37.1016 18.0234 36.4609 18.1562 35.7578 18.1562ZM35.5 11.2188C35.0521 11.2188 34.6875 11.3698 34.4062 11.6719C34.1302 11.974 33.9531 12.4062 33.875 12.9688H37.0156V12.7891C37.0052 12.2891 36.8698 11.9036 36.6094 11.6328C36.349 11.3568 35.9792 11.2188 35.5 11.2188ZM45.2734 11.6641C44.9661 11.6224 44.6953 11.6016 44.4609 11.6016C43.6068 11.6016 43.0469 11.8906 42.7812 12.4688V18H40.5234V9.54688H42.6562L42.7188 10.5547C43.1719 9.77865 43.7995 9.39062 44.6016 9.39062C44.8516 9.39062 45.0859 9.42448 45.3047 9.49219L45.2734 11.6641Z" fill="#C4C4C4"/>
</svg>
