<svg id="Слой_1" data-name="Слой 1" xmlns="http://www.w3.org/2000/svg" viewBox="0 0 71.11 104"><defs><style>.cls-1{fill:#ddefff;}.cls-2{fill:#1a91ff;}</style></defs><title>logo1</title><path class="cls-1" d="M13.72,6.23a4,4,0,0,1,4-4H67.9a4,4,0,0,1,4,4V9.94a10,10,0,0,1-10,10H17.72a4,4,0,0,1-4-4Z" transform="translate(-0.79 -2.23)"/><path class="cls-1" d="M11.19,44.17a4,4,0,0,1,4-4H62.84a4,4,0,0,1,4,4v3.71a10,10,0,0,1-10,10H15.19a4,4,0,0,1-4-4Z" transform="translate(-0.79 -2.23)"/><rect class="cls-1" x="10.4" width="17.71" height="93.6" rx="4"/><path class="cls-2" d="M3.32,16.63a4,4,0,0,1,4-4H57.5a4,4,0,0,1,4,4v3.71a10,10,0,0,1-10,10H7.32a4,4,0,0,1-4-4Z" transform="translate(-0.79 -2.23)"/><path class="cls-2" d="M.79,54.57a4,4,0,0,1,4-4H52.44a4,4,0,0,1,4,4v3.71a10,10,0,0,1-10,10H4.79a4,4,0,0,1-4-4Z" transform="translate(-0.79 -2.23)"/><rect class="cls-2" y="10.4" width="17.71" height="93.6" rx="4"/></svg>